<svg width="68" height="64" viewBox="0 0 68 64" fill="none" xmlns="http://www.w3.org/2000/svg">
<g clip-path="url(#clip0)">
<path d="M0.0308888 36.2934C0.0308888 36.0772 0.0308888 35.8301 0.0308888 35.6139C-0.0926633 32.7413 -0.494207 13.0965 10.2548 11.861C21.8687 10.5019 34.1931 10.9961 40 0C43.4904 3.73745 42.9035 8.83398 38.1776 12.2008C33.112 15.8456 25.4826 16.1853 19.3359 17.0502C16.556 17.4209 9.42085 17.4208 8.21622 24.7722C7.01158 32.1236 5.83784 49.0502 11.1815 54.3938C13.6834 56.8958 22.1467 58.0695 30.888 58.0695C40.7413 58.0695 50.9344 56.6178 53.251 55.6911C58.8108 53.4054 59.7683 48.1236 60.4788 42.2239C61.1892 36.2934 61.529 16.0927 51.6139 11.1506C61.0348 12.6023 65.2355 15.8764 67.0579 24.7104C67.8919 28.7568 68.2626 35.5521 67.7375 42.1622C67.1197 50.0386 65.2355 57.668 61.3745 60.2317C54.2394 64.9575 9.79151 66.5019 4.07722 57.6988C7.07383e-07 51.3359 7.60314e-07 38.5174 0.0308888 36.2934Z" fill="url(#paint0_linear)"/>
<path d="M26.2548 36.7568C26.2548 36.7568 26.193 26.9961 29.0656 26.749C31.9382 26.5328 39.3822 31.0734 42.1004 33.5135C44.8185 35.9537 44.9112 37.8069 42.0077 40.0618C39.1042 42.3166 32.0618 46.9807 29.4672 46.7645C26.8417 46.5483 26.5019 41.9768 26.2548 36.7568Z" fill="url(#paint1_linear)"/>
<path d="M19.3359 17.0502C25.5135 16.2162 33.112 15.8456 38.1776 12.2008C42.9035 8.80309 43.4904 3.73745 40 0C34.1931 10.9961 21.8687 10.5019 10.2548 11.8301C9.72975 11.8919 9.23554 11.9846 8.74133 12.139L14.6718 17.7606C16.4942 17.2664 18.2548 17.2046 19.3359 17.0502Z" fill="url(#paint2_linear)"/>
<path d="M61.4054 60.2008C65.2664 57.6371 67.1506 50.0077 67.7683 42.1313C68.2934 35.4903 67.9228 28.695 67.0888 24.6795C65.2664 15.8456 61.0656 12.5714 51.6448 11.1197C61.5598 16.0618 61.2201 36.2626 60.5096 42.1931C59.8301 47.722 58.9652 52.6641 54.332 55.166L60.2934 60.7876C60.695 60.6023 61.0965 60.3861 61.4054 60.2008Z" fill="url(#paint3_linear)"/>
</g>
<defs>
<linearGradient id="paint0_linear" x1="56.5366" y1="35.8724" x2="10.822" y2="28.6448" gradientUnits="userSpaceOnUse">
<stop stop-color="#E800CD"/>
<stop offset="1" stop-color="#E84080"/>
</linearGradient>
<linearGradient id="paint1_linear" x1="30.0851" y1="42.9419" x2="38.0275" y2="29.0427" gradientUnits="userSpaceOnUse">
<stop stop-color="#9837CD"/>
<stop offset="1" stop-color="#E8254F"/>
</linearGradient>
<linearGradient id="paint2_linear" x1="1.15607e-07" y1="8.88454" x2="67.9937" y2="8.88454" gradientUnits="userSpaceOnUse">
<stop stop-color="#9837CD"/>
<stop offset="1" stop-color="#E8254F"/>
</linearGradient>
<linearGradient id="paint3_linear" x1="62.8484" y1="22.4556" x2="48.2126" y2="57.1479" gradientUnits="userSpaceOnUse">
<stop stop-color="#E800CD"/>
<stop offset="1" stop-color="#E8254F"/>
</linearGradient>
<clipPath id="clip0">
<rect width="67.9846" height="64" fill="white"/>
</clipPath>
</defs>
</svg>
